<svg xmlns="http://www.w3.org/2000/svg" width="1200" height="780"><rect width="1200" height="780" x="0" y="0" fill="#FFFFFF" id="backgorund"/><g id="viz"><clipPath id="serieClipPath"><rect x="-50" y="-15" width="1200" height="780"/></clipPath><g transform="translate(0,0)"><g transform="translate(50,15)" clip-path="url(#serieClipPath)"><g id="axis"><g transform="translate(0,745)" fill="none" font-size="10" font-family="sans-serif" text-anchor="middle"><path class="domain" stroke="currentColor" d="M0,6V0H1135V6"/><g class="tick" opacity="1" transform="translate(0,0)"><line stroke="currentColor" y2="6"/><text fill="currentColor" y="9" dy="0.71em">0019</text></g><g class="tick" opacity="1" transform="translate(93.20255474452554,0)"><line stroke="currentColor" y2="6"/><text fill="currentColor" y="9" dy="0.71em">April</text></g><g class="tick" opacity="1" transform="translate(187.44069343065695,0)"><line stroke="currentColor" y2="6"/><text fill="currentColor" y="9" dy="0.71em">July</text></g><g class="tick" opacity="1" transform="translate(282.71441605839414,0)"><line stroke="currentColor" y2="6"/><text fill="currentColor" y="9" dy="0.71em">October</text></g><g class="tick" opacity="1" transform="translate(377.98813868613144,0)"><line stroke="currentColor" y2="6"/><text fill="currentColor" y="9" dy="0.71em">0020</text></g><g class="tick" opacity="1" transform="translate(472.22627737226276,0)"><line stroke="currentColor" y2="6"/><text fill="currentColor" y="9" dy="0.71em">April</text></g><g class="tick" opacity="1" transform="translate(566.4644160583941,0)"><line stroke="currentColor" y2="6"/><text fill="currentColor" y="9" dy="0.71em">July</text></g><g class="tick" opacity="1" transform="translate(661.7381386861314,0)"><line stroke="currentColor" y2="6"/><text fill="currentColor" y="9" dy="0.71em">October</text></g><g class="tick" opacity="1" transform="translate(757.0118613138686,0)"><line stroke="currentColor" y2="6"/><text fill="currentColor" y="9" dy="0.71em">0021</text></g><g class="tick" opacity="1" transform="translate(850.2144160583941,0)"><line stroke="currentColor" y2="6"/><text fill="currentColor" y="9" dy="0.71em">April</text></g><g class="tick" opacity="1" transform="translate(944.4525547445255,0)"><line stroke="currentColor" y2="6"/><text fill="currentColor" y="9" dy="0.71em">July</text></g><g class="tick" opacity="1" transform="translate(1039.7262773722628,0)"><line stroke="currentColor" y2="6"/><text fill="currentColor" y="9" dy="0.71em">October</text></g><g class="tick" opacity="1" transform="translate(1135,0)"><line stroke="currentColor" y2="6"/><text fill="currentColor" y="9" dy="0.71em">0022</text></g><text x="1135" dy="-5" text-anchor="end" style="font-family: Arial, sans-serif; font-size: 12px; fill: rgb(123, 123, 123); font-weight: bold;">week</text></g><g transform="translate(0,0)" fill="none" font-size="10" font-family="sans-serif" text-anchor="end"><path class="domain" stroke="currentColor" d="M0,745V0"/><g class="tick" opacity="1" transform="translate(0,745)"><line stroke="currentColor" x2="-6"/><text fill="currentColor" x="-9" dy="0.32em">95</text></g><g class="tick" opacity="1" transform="translate(0,677.2727272727273)"><line stroke="currentColor" x2="-6"/><text fill="currentColor" x="-9" dy="0.32em">100</text></g><g class="tick" opacity="1" transform="translate(0,609.5454545454545)"><line stroke="currentColor" x2="-6"/><text fill="currentColor" x="-9" dy="0.32em">105</text></g><g class="tick" opacity="1" transform="translate(0,541.8181818181819)"><line stroke="currentColor" x2="-6"/><text fill="currentColor" x="-9" dy="0.32em">110</text></g><g class="tick" opacity="1" transform="translate(0,474.09090909090907)"><line stroke="currentColor" x2="-6"/><text fill="currentColor" x="-9" dy="0.32em">115</text></g><g class="tick" opacity="1" transform="translate(0,406.3636363636363)"><line stroke="currentColor" x2="-6"/><text fill="currentColor" x="-9" dy="0.32em">120</text></g><g class="tick" opacity="1" transform="translate(0,338.6363636363637)"><line stroke="currentColor" x2="-6"/><text fill="currentColor" x="-9" dy="0.32em">125</text></g><g class="tick" opacity="1" transform="translate(0,270.90909090909093)"><line stroke="currentColor" x2="-6"/><text fill="currentColor" x="-9" dy="0.32em">130</text></g><g class="tick" opacity="1" transform="translate(0,203.18181818181816)"><line stroke="currentColor" x2="-6"/><text fill="currentColor" x="-9" dy="0.32em">135</text></g><g class="tick" opacity="1" transform="translate(0,135.4545454545454)"><line stroke="currentColor" x2="-6"/><text fill="currentColor" x="-9" dy="0.32em">140</text></g><g class="tick" opacity="1" transform="translate(0,67.72727272727275)"><line stroke="currentColor" x2="-6"/><text fill="currentColor" x="-9" dy="0.32em">145</text></g><g class="tick" opacity="1" transform="translate(0,0)"><line stroke="currentColor" x2="-6"/><text fill="currentColor" x="-9" dy="0.32em">150</text></g><text x="4" text-anchor="start" dominant-baseline="hanging" style="font-family: Arial, sans-serif; font-size: 12px; fill: rgb(123, 123, 123); font-weight: bold;">tempo</text></g></g><g id="viz"><g><path d="M72.49087591240877,359.24554245454544L380.05930656934305,305.83414909090914L382.1304744525548,486.2308195454546L386.2728102189781,338.4730190000001L388.34397810218974,318.1347086363637L389.37956204379566,53.29169218181799L411.12682481751824,335.22788027272725L415.2691605839416,433.96851418181814L417.3403284671533,208.5891636363637L419.4114963503649,201.9187045454544L442.19434306569343,452.3827062727272L443.2299270072993,248.16627272727274L444.2655109489051,212.6488582727271L446.3366788321168,344.26151999999996L450.4790145985401,326.54455309090906L473.26186131386856,476.2502441818181L479.47536496350364,140.05007118181828L481.54653284671537,511.50961772727277L483.617700729927,333.4186545454546L503.29379562043795,379.31649263636365L506.4005474452555,268.6773147272728L508.47171532846716,303.29731572727263L509.507299270073,412.8835106363637L537.4680656934306,223.15417100000002L545.7527372262773,494.82306709090915L566.4644160583941,331.6909318181819L567.5,512.562709090909L571.6423357664235,447.726943909091L573.7135036496351,314.5080350909092L600.6386861313869,401.805022L602.7098540145986,372.31789490909085L608.9233576642335,470.43871590909083L631.706204379562,384.84780609090905L637.9197080291971,681.8811916181818L639.9908759124087,269.61646172727274L661.7381386861314,341.5658797272728L664.844890510949,693.3229625727273L665.8804744525547,203.34351027272717L667.9516423357665,342.5421683636364L702.1259124087592,272.0006242727271L703.1614963503649,354.0158727272728L705.2326642335765,292.5778087272727L724.9087591240876,286.6428949090907L728.0155109489051,391.11295809090905L730.0866788321168,330.9804727272727L731.1222627737226,383.38187636363637L757.0118613138686,407.3639140000001L762.1897810218977,358.5860007272727L790.1505474452555,321.7015383636364L792.2217153284672,445.91208327272733L793.257299270073,633.800853L795.3284671532847,291.8197373636362L853.3211678832116,413.1526181818181L854.3567518248175,472.87001663636374L855.3923357664235,622.539609090909L856.4279197080292,351.0078742727272L881.2819343065693,189.50195209090927L882.3175182481751,445.6693216363637L883.3531021897811,416.9234424545455L916.4917883211679,313.5806590909091L918.5629562043795,276.32727272727277L945.4881386861314,419.61447727272736L946.5237226277371,373.0978015454546L948.594890510949,295.3769633636363L976.5556569343066,358.4067130909092L1011.7655109489051,422.7222650909091L1012.801094890511,310.8094893636364L1014.8722627737226,388.5208863636364L1039.7262773722628,291.97396590909096L1074.9361313868612,490.0445558181818L1077.007299270073,298.55119163636374L1103.9324817518248,272.0273494545456L1104.9680656934306,345.67999999999995" stroke="#1f77b4" fill="none"/><g><circle class="dot" cx="72.49087591240877" cy="359.24554245454544" r="2" fill="#1f77b4"/><circle class="dot" cx="380.05930656934305" cy="305.83414909090914" r="2" fill="#1f77b4"/><circle class="dot" cx="382.1304744525548" cy="486.2308195454546" r="2" fill="#1f77b4"/><circle class="dot" cx="386.2728102189781" cy="338.4730190000001" r="2" fill="#1f77b4"/><circle class="dot" cx="388.34397810218974" cy="318.1347086363637" r="2" fill="#1f77b4"/><circle class="dot" cx="389.37956204379566" cy="53.29169218181799" r="2" fill="#1f77b4"/><circle class="dot" cx="411.12682481751824" cy="335.22788027272725" r="2" fill="#1f77b4"/><circle class="dot" cx="415.2691605839416" cy="433.96851418181814" r="2" fill="#1f77b4"/><circle class="dot" cx="417.3403284671533" cy="208.5891636363637" r="2" fill="#1f77b4"/><circle class="dot" cx="419.4114963503649" cy="201.9187045454544" r="2" fill="#1f77b4"/><circle class="dot" cx="442.19434306569343" cy="452.3827062727272" r="2" fill="#1f77b4"/><circle class="dot" cx="443.2299270072993" cy="248.16627272727274" r="2" fill="#1f77b4"/><circle class="dot" cx="444.2655109489051" cy="212.6488582727271" r="2" fill="#1f77b4"/><circle class="dot" cx="446.3366788321168" cy="344.26151999999996" r="2" fill="#1f77b4"/><circle class="dot" cx="450.4790145985401" cy="326.54455309090906" r="2" fill="#1f77b4"/><circle class="dot" cx="473.26186131386856" cy="476.2502441818181" r="2" fill="#1f77b4"/><circle class="dot" cx="479.47536496350364" cy="140.05007118181828" r="2" fill="#1f77b4"/><circle class="dot" cx="481.54653284671537" cy="511.50961772727277" r="2" fill="#1f77b4"/><circle class="dot" cx="483.617700729927" cy="333.4186545454546" r="2" fill="#1f77b4"/><circle class="dot" cx="503.29379562043795" cy="379.31649263636365" r="2" fill="#1f77b4"/><circle class="dot" cx="506.4005474452555" cy="268.6773147272728" r="2" fill="#1f77b4"/><circle class="dot" cx="508.47171532846716" cy="303.29731572727263" r="2" fill="#1f77b4"/><circle class="dot" cx="509.507299270073" cy="412.8835106363637" r="2" fill="#1f77b4"/><circle class="dot" cx="537.4680656934306" cy="223.15417100000002" r="2" fill="#1f77b4"/><circle class="dot" cx="545.7527372262773" cy="494.82306709090915" r="2" fill="#1f77b4"/><circle class="dot" cx="566.4644160583941" cy="331.6909318181819" r="2" fill="#1f77b4"/><circle class="dot" cx="567.5" cy="512.562709090909" r="2" fill="#1f77b4"/><circle class="dot" cx="571.6423357664235" cy="447.726943909091" r="2" fill="#1f77b4"/><circle class="dot" cx="573.7135036496351" cy="314.5080350909092" r="2" fill="#1f77b4"/><circle class="dot" cx="600.6386861313869" cy="401.805022" r="2" fill="#1f77b4"/><circle class="dot" cx="602.7098540145986" cy="372.31789490909085" r="2" fill="#1f77b4"/><circle class="dot" cx="608.9233576642335" cy="470.43871590909083" r="2" fill="#1f77b4"/><circle class="dot" cx="631.706204379562" cy="384.84780609090905" r="2" fill="#1f77b4"/><circle class="dot" cx="637.9197080291971" cy="681.8811916181818" r="2" fill="#1f77b4"/><circle class="dot" cx="639.9908759124087" cy="269.61646172727274" r="2" fill="#1f77b4"/><circle class="dot" cx="661.7381386861314" cy="341.5658797272728" r="2" fill="#1f77b4"/><circle class="dot" cx="664.844890510949" cy="693.3229625727273" r="2" fill="#1f77b4"/><circle class="dot" cx="665.8804744525547" cy="203.34351027272717" r="2" fill="#1f77b4"/><circle class="dot" cx="667.9516423357665" cy="342.5421683636364" r="2" fill="#1f77b4"/><circle class="dot" cx="702.1259124087592" cy="272.0006242727271" r="2" fill="#1f77b4"/><circle class="dot" cx="703.1614963503649" cy="354.0158727272728" r="2" fill="#1f77b4"/><circle class="dot" cx="705.2326642335765" cy="292.5778087272727" r="2" fill="#1f77b4"/><circle class="dot" cx="724.9087591240876" cy="286.6428949090907" r="2" fill="#1f77b4"/><circle class="dot" cx="728.0155109489051" cy="391.11295809090905" r="2" fill="#1f77b4"/><circle class="dot" cx="730.0866788321168" cy="330.9804727272727" r="2" fill="#1f77b4"/><circle class="dot" cx="731.1222627737226" cy="383.38187636363637" r="2" fill="#1f77b4"/><circle class="dot" cx="757.0118613138686" cy="407.3639140000001" r="2" fill="#1f77b4"/><circle class="dot" cx="762.1897810218977" cy="358.5860007272727" r="2" fill="#1f77b4"/><circle class="dot" cx="790.1505474452555" cy="321.7015383636364" r="2" fill="#1f77b4"/><circle class="dot" cx="792.2217153284672" cy="445.91208327272733" r="2" fill="#1f77b4"/><circle class="dot" cx="793.257299270073" cy="633.800853" r="2" fill="#1f77b4"/><circle class="dot" cx="795.3284671532847" cy="291.8197373636362" r="2" fill="#1f77b4"/><circle class="dot" cx="853.3211678832116" cy="413.1526181818181" r="2" fill="#1f77b4"/><circle class="dot" cx="854.3567518248175" cy="472.87001663636374" r="2" fill="#1f77b4"/><circle class="dot" cx="855.3923357664235" cy="622.539609090909" r="2" fill="#1f77b4"/><circle class="dot" cx="856.4279197080292" cy="351.0078742727272" r="2" fill="#1f77b4"/><circle class="dot" cx="881.2819343065693" cy="189.50195209090927" r="2" fill="#1f77b4"/><circle class="dot" cx="882.3175182481751" cy="445.6693216363637" r="2" fill="#1f77b4"/><circle class="dot" cx="883.3531021897811" cy="416.9234424545455" r="2" fill="#1f77b4"/><circle class="dot" cx="916.4917883211679" cy="313.5806590909091" r="2" fill="#1f77b4"/><circle class="dot" cx="918.5629562043795" cy="276.32727272727277" r="2" fill="#1f77b4"/><circle class="dot" cx="945.4881386861314" cy="419.61447727272736" r="2" fill="#1f77b4"/><circle class="dot" cx="946.5237226277371" cy="373.0978015454546" r="2" fill="#1f77b4"/><circle class="dot" cx="948.594890510949" cy="295.3769633636363" r="2" fill="#1f77b4"/><circle class="dot" cx="976.5556569343066" cy="358.4067130909092" r="2" fill="#1f77b4"/><circle class="dot" cx="1011.7655109489051" cy="422.7222650909091" r="2" fill="#1f77b4"/><circle class="dot" cx="1012.801094890511" cy="310.8094893636364" r="2" fill="#1f77b4"/><circle class="dot" cx="1014.8722627737226" cy="388.5208863636364" r="2" fill="#1f77b4"/><circle class="dot" cx="1039.7262773722628" cy="291.97396590909096" r="2" fill="#1f77b4"/><circle class="dot" cx="1074.9361313868612" cy="490.0445558181818" r="2" fill="#1f77b4"/><circle class="dot" cx="1077.007299270073" cy="298.55119163636374" r="2" fill="#1f77b4"/><circle class="dot" cx="1103.9324817518248" cy="272.0273494545456" r="2" fill="#1f77b4"/><circle class="dot" cx="1104.9680656934306" cy="345.67999999999995" r="2" fill="#1f77b4"/></g><text font-family="sans-serif" font-size="10" class="labels" x="389.37956204379566" y="53.29169218181799" dx="0" dy="-4" text-anchor="middle"/></g></g></g><text y="4" x="4" style="font-family: Arial, sans-serif; font-size: 12px; fill: black; font-weight: bold; dominant-baseline: hanging;"/></g><g id="grid"><rect x="0" y="0" width="1200" height="780" fill="none" stroke="#ccc"/></g></g></svg>