<?xml version="1.0" encoding="utf-8"?>
<!-- Generator: Adobe Illustrator 26.2.1, SVG Export Plug-In . SVG Version: 6.00 Build 0)  -->
<svg version="1.1" id="graphic" xmlns="http://www.w3.org/2000/svg" xmlns:xlink="http://www.w3.org/1999/xlink" x="0px" y="0px"
	 viewBox="0 0 786 565" style="enable-background:new 0 0 786 565;" xml:space="preserve">
<style type="text/css">
	.st0{clip-path:url(#SVGID_00000076579005676510104180000013041158740697139641_);}
	.st1{display:none;clip-path:url(#SVGID_00000152256850035404149670000006672014736078142363_);fill:none;}
	.st2{fill:none;}
	.st3{fill:#EEEEEE;fill-opacity:0;}
	.st4{display:none;fill:none;stroke:#FF0000;}
	.st5{fill-opacity:0;}
	.st6{clip-path:url(#SVGID_00000010282896069457931750000001520910860166224272_);fill:none;stroke:#EEEEEE;stroke-width:1.5;}
	.st7{fill:none;stroke:#EEEEEE;stroke-width:1.5;stroke-linecap:square;}
	.st8{fill:none;stroke:#EEEEEE;stroke-width:1.5;}
	.st9{fill:#AAAAAA;}
	.st10{font-family:'SourceSansPro-Black';}
	.st11{font-size:12.6px;}
	.st12{clip-path:url(#SVGID_00000032635878428366008500000007660156060864327101_);fill:none;stroke:#1DF522;stroke-width:2.8;}
	.st13{clip-path:url(#SVGID_00000024700425917033083980000012606970698252469151_);}
	.st14{clip-path:url(#SVGID_00000168082697035421623770000008408764374763442864_);fill:#1D6996;}
	.st15{clip-path:url(#SVGID_00000048471410830747124710000007327124355815985580_);}
</style>
<g>
	<defs>
		<polygon id="SVGID_1_" points="1,1 2,1 1,2 		"/>
	</defs>
	<defs>
		<polygon id="SVGID_00000039824480132221595470000018312175585619132313_" points="-1,-1 -2,-1 -1,-2 		"/>
	</defs>
	<clipPath id="SVGID_00000120518429808769125380000016185790603560532653_">
		<use xlink:href="#SVGID_1_"  style="overflow:visible;"/>
	</clipPath>
	
		<clipPath id="SVGID_00000090257724646822548190000017135945658507806125_" style="clip-path:url(#SVGID_00000120518429808769125380000016185790603560532653_);">
		<use xlink:href="#SVGID_00000039824480132221595470000018312175585619132313_"  style="overflow:visible;"/>
	</clipPath>
	<path style="display:none;clip-path:url(#SVGID_00000090257724646822548190000017135945658507806125_);fill:none;" d="M-1-2"/>
</g>
<rect x="40" y="42.5" class="st2" width="745.5" height="467.4"/>
<rect x="40" y="42.5" class="st2" width="745.5" height="467.4"/>
<polygon class="st3" points="40,42.5 40,42.5 40,42.5 "/>
<rect x="40" y="42.5" class="st4" width="745.5" height="467.4"/>
<rect x="40" y="49.7" class="st2" width="735.3" height="460.2"/>
<rect x="40" y="49.7" class="st5" width="735.3" height="460.2"/>
<g>
	<defs>
		<rect id="SVGID_00000098208594790282182350000004681879691634222223_" x="40" y="49.7" width="735.3" height="460.2"/>
	</defs>
	<clipPath id="SVGID_00000064328076324414844370000016360046549802619823_">
		<use xlink:href="#SVGID_00000098208594790282182350000004681879691634222223_"  style="overflow:visible;"/>
	</clipPath>
</g>
<g>
	<defs>
		<rect id="SVGID_00000181772924343115445090000011341999143489789317_" x="38.5" y="48.2" width="738.3" height="463.2"/>
	</defs>
	<clipPath id="SVGID_00000108298689912200431310000009147570698391043751_">
		<use xlink:href="#SVGID_00000181772924343115445090000011341999143489789317_"  style="overflow:visible;"/>
	</clipPath>
	
		<line style="clip-path:url(#SVGID_00000108298689912200431310000009147570698391043751_);fill:none;stroke:#EEEEEE;stroke-width:1.5;" x1="40" y1="509.9" x2="775.3" y2="509.9"/>
	
		<line style="clip-path:url(#SVGID_00000108298689912200431310000009147570698391043751_);fill:none;stroke:#EEEEEE;stroke-width:1.5;" x1="40" y1="452.4" x2="775.3" y2="452.4"/>
	
		<line style="clip-path:url(#SVGID_00000108298689912200431310000009147570698391043751_);fill:none;stroke:#EEEEEE;stroke-width:1.5;" x1="40" y1="394.8" x2="775.3" y2="394.8"/>
	
		<line style="clip-path:url(#SVGID_00000108298689912200431310000009147570698391043751_);fill:none;stroke:#EEEEEE;stroke-width:1.5;" x1="40" y1="337.3" x2="775.3" y2="337.3"/>
	
		<line style="clip-path:url(#SVGID_00000108298689912200431310000009147570698391043751_);fill:none;stroke:#EEEEEE;stroke-width:1.5;" x1="40" y1="279.8" x2="775.3" y2="279.8"/>
	
		<line style="clip-path:url(#SVGID_00000108298689912200431310000009147570698391043751_);fill:none;stroke:#EEEEEE;stroke-width:1.5;" x1="40" y1="222.3" x2="775.3" y2="222.3"/>
	
		<line style="clip-path:url(#SVGID_00000108298689912200431310000009147570698391043751_);fill:none;stroke:#EEEEEE;stroke-width:1.5;" x1="40" y1="164.7" x2="775.3" y2="164.7"/>
	
		<line style="clip-path:url(#SVGID_00000108298689912200431310000009147570698391043751_);fill:none;stroke:#EEEEEE;stroke-width:1.5;" x1="40" y1="107.2" x2="775.3" y2="107.2"/>
	
		<line style="clip-path:url(#SVGID_00000108298689912200431310000009147570698391043751_);fill:none;stroke:#EEEEEE;stroke-width:1.5;" x1="40" y1="49.7" x2="775.3" y2="49.7"/>
</g>
<line class="st7" x1="40" y1="509.9" x2="775.3" y2="509.9"/>
<line class="st8" x1="775.3" y1="509.9" x2="775.3" y2="516.9"/>
<text transform="matrix(0.7071 -0.7071 0.7071 0.7071 746.3799 561.0799)" class="st9 st10 st11">Oct 2021</text>
<line class="st8" x1="682.8" y1="509.9" x2="682.8" y2="516.9"/>
<text transform="matrix(0.7071 -0.7071 0.7071 0.7071 653.8396 561.0799)" class="st9 st10 st11">July 2021</text>
<line class="st8" x1="591.2" y1="509.9" x2="591.2" y2="516.9"/>
<text transform="matrix(0.7071 -0.7071 0.7071 0.7071 562.3049 561.0799)" class="st9 st10 st11">April 2021</text>
<line class="st8" x1="500.8" y1="509.9" x2="500.8" y2="516.9"/>
<text transform="matrix(0.7071 -0.7071 0.7071 0.7071 471.8183 561.0799)" class="st9 st10 st11">Jan 2021</text>
<line class="st8" x1="408.2" y1="509.9" x2="408.2" y2="516.9"/>
<text transform="matrix(0.7071 -0.7071 0.7071 0.7071 379.2361 561.0799)" class="st9 st10 st11">Oct 2020</text>
<line class="st8" x1="315.6" y1="509.9" x2="315.6" y2="516.9"/>
<text transform="matrix(0.7071 -0.7071 0.7071 0.7071 286.6958 561.0799)" class="st9 st10 st11">July 2020</text>
<line class="st8" x1="224.1" y1="509.9" x2="224.1" y2="516.9"/>
<text transform="matrix(0.7071 -0.7071 0.7071 0.7071 195.1614 561.0799)" class="st9 st10 st11">April 2020</text>
<line class="st8" x1="132.6" y1="509.9" x2="132.6" y2="516.9"/>
<text transform="matrix(0.7071 -0.7071 0.7071 0.7071 103.6687 561.0799)" class="st9 st10 st11">Jan 2020</text>
<line class="st8" x1="40" y1="509.9" x2="40" y2="516.9"/>
<text transform="matrix(0.7071 -0.7071 0.7071 0.7071 11.0867 561.0799)" class="st9 st10 st11">Oct 2019</text>
<line class="st7" x1="40" y1="509.9" x2="40" y2="49.7"/>
<line class="st8" x1="40" y1="509.9" x2="33" y2="509.9"/>
<text transform="matrix(1 0 0 1 22.7205 514.0394)" class="st9 st10 st11">0</text>
<line class="st8" x1="40" y1="222.3" x2="33" y2="222.3"/>
<text transform="matrix(1 0 0 1 9.1127 226.426)" class="st9 st10 st11">100</text>
<line class="st8" x1="40" y1="279.8" x2="33" y2="279.8"/>
<text transform="matrix(1 0 0 1 15.9166 283.9487)" class="st9 st10 st11">80</text>
<line class="st8" x1="40" y1="337.3" x2="33" y2="337.3"/>
<text transform="matrix(1 0 0 1 15.9166 341.4714)" class="st9 st10 st11">60</text>
<line class="st8" x1="40" y1="394.8" x2="33" y2="394.8"/>
<text transform="matrix(1 0 0 1 15.9166 398.994)" class="st9 st10 st11">40</text>
<line class="st8" x1="40" y1="452.4" x2="33" y2="452.4"/>
<text transform="matrix(1 0 0 1 15.9166 456.5167)" class="st9 st10 st11">20</text>
<line class="st8" x1="40" y1="49.7" x2="33" y2="49.7"/>
<text transform="matrix(1 0 0 1 9.1127 53.858)" class="st9 st10 st11">160</text>
<line class="st8" x1="40" y1="107.2" x2="33" y2="107.2"/>
<text transform="matrix(1 0 0 1 9.1127 111.3807)" class="st9 st10 st11">140</text>
<line class="st8" x1="40" y1="164.7" x2="33" y2="164.7"/>
<text transform="matrix(1 0 0 1 9.1127 168.9034)" class="st9 st10 st11">120</text>
<g>
	<defs>
		<rect id="SVGID_00000009554775589420423380000005785740361634631058_" x="40" y="49.7" width="735.3" height="460.2"/>
	</defs>
	<clipPath id="SVGID_00000051349727392319350580000002228896825138419332_">
		<use xlink:href="#SVGID_00000009554775589420423380000005785740361634631058_"  style="overflow:visible;"/>
	</clipPath>
</g>
<g id="areas">
</g>
<g>
	<defs>
		<rect id="SVGID_00000043451795531575103860000013343000561725957035_" x="40" y="46.9" width="735.3" height="465.8"/>
	</defs>
	<clipPath id="SVGID_00000171711791035021362580000002682557600153628862_">
		<use xlink:href="#SVGID_00000043451795531575103860000013343000561725957035_"  style="overflow:visible;"/>
	</clipPath>
	
		<path pointer-events="none" style="clip-path:url(#SVGID_00000171711791035021362580000002682557600153628862_);fill:none;stroke:#1DF522;stroke-width:2.8;" d="
		M127.6,154.7c4.7-1.9,9.4-3.8,14.1-3.8c2.3,0,4.7,8,7,8c2.3,0,4.7-19.7,7-19.7s4.7,3.2,7,9.6c2.3,6.4,4.7,38.4,7,38.4
		c2.3,0,4.7-37.7,7-37.7c2.3,0,4.7,5.5,7,10.5c2.3,5,4.7,19.4,7,19.4c2.3,0,4.7-53.7,7-53.7c2.3,0,4.7,11.3,7,17.6
		c2.3,6.3,4.7,15.2,7,20.4s4.7,10.7,7,10.7s4.7-43.4,7-43.4s4.7,94.5,7,94.5c2.3,0,4.7-90.2,7-90.2c2.3,0,4.7,18.3,7,26
		c2.3,7.7,4.7,20.2,7,20.2c2.3,0,4.7-14.5,7-24.2s4.7-32.6,7-33.9c2.3-1.3,4.7-2,7-2c4.7,0,9.4,16.3,14.1,21.2c2.3,2.5,4.7,2,7,5.9
		s4.7,24.8,7,24.8s4.7-1,7-2.9c2.3-1.9,4.7-18.8,7-19c2.3-0.2,4.7-0.4,7-0.4c2.3,0,4.7,14.9,7,14.9c2.3,0,4.7-4.1,7-6.3
		c4.7-4.4,9.4-4.9,14.1-14.6c2.3-4.9,4.7-22.5,7-22.5c2.3,0,4.7,100.5,7,100.5c2.3,0,4.7-115,7-115c4.7,0,9.4,21,14.1,28
		c4.7,7,9.4,14.1,14.1,14.1c2.3,0,4.7-29,7-29c2.3,0,4.7,4.8,7,14.4c2.3,9.6,4.7,51.4,7,51.4c2.3,0,4.7-33.4,7-33.4
		c4.7,0,9.4,29.9,14.1,29.9c2.3,0,4.7-37.5,7-37.5c2.3,0,4.7,32.3,7,32.3s4.7-30.6,7-30.6s4.7,1.5,7,1.5s4.7-3.9,7-8.7
		c4.7-9.5,9.4-50.8,14.1-50.8c2.3,0,4.7,75.2,7,75.2c2.3,0,4.7-7.3,7-10.4c4.7-6.2,9.4-4.7,14.1-14.1c2.3-4.7,4.7-21.8,7-21.8
		s4.7,54.4,7,54.4c2.3,0,4.7-36.9,7-36.9s4.7,31.3,7,31.3s4.7-20.8,7-20.8c2.3,0,4.7,20.2,7,20.2s4.7-15.1,7-15.1
		c2.3,0,4.7,3.7,7,5.8c4.7,4.3,9.4,15.5,14.1,15.5c2.3,0,4.7-3.8,7-4.9c2.3-1.2,4.7-2,7-2s4.7,16.3,7,16.3c2.3,0,4.7-34.9,7-37.5
		s4.7-3.9,7-3.9c2.3,0,4.7,71.9,7,71.9s4.7-68.6,7-68.6s4.7,23.4,7,34.4c2.3,11,4.7,31.8,7,31.8s4.7-65.6,7-68.8
		c2.3-3.1,4.7-4.7,7-4.7s4.7,17.5,7,17.5c2.3,0,4.7-14.2,7-14.2s4.7,20.5,7,20.5s4.7-4,7-8"/>
</g>
<g>
	<defs>
		<polygon id="SVGID_00000169536142167629751220000006190979754696291248_" points="41,43.5 42,43.5 41,44.5 		"/>
	</defs>
	<defs>
		<polygon id="SVGID_00000029724491853628296920000008085166052948763312_" points="39,41.5 38,41.5 39,40.5 		"/>
	</defs>
	<clipPath id="SVGID_00000183236851160655494840000013533592821048606353_">
		<use xlink:href="#SVGID_00000169536142167629751220000006190979754696291248_"  style="overflow:visible;"/>
	</clipPath>
	
		<clipPath id="SVGID_00000137820285833357704230000008695454137359388351_" style="clip-path:url(#SVGID_00000183236851160655494840000013533592821048606353_);">
		<use xlink:href="#SVGID_00000029724491853628296920000008085166052948763312_"  style="overflow:visible;"/>
	</clipPath>
	<path id="point-0-0" style="clip-path:url(#SVGID_00000137820285833357704230000008695454137359388351_);fill:#1D6996;" d="
		M124.1,154.7c0-1.9,1.6-3.5,3.5-3.5c1.9,0,3.5,1.6,3.5,3.5l0,0c0,1.9-1.6,3.5-3.5,3.5C125.6,158.2,124.1,156.7,124.1,154.7
		L124.1,154.7z"/>
	<path id="point-0-1" style="clip-path:url(#SVGID_00000137820285833357704230000008695454137359388351_);fill:#1D6996;" d="
		M138.2,151c0-1.9,1.6-3.5,3.5-3.5s3.5,1.6,3.5,3.5s-1.6,3.5-3.5,3.5S138.2,152.9,138.2,151z"/>
	<path id="point-0-2" style="clip-path:url(#SVGID_00000137820285833357704230000008695454137359388351_);fill:#1D6996;" d="
		M145.2,159c0-1.9,1.6-3.5,3.5-3.5c1.9,0,3.5,1.6,3.5,3.5l0,0c0,1.9-1.6,3.5-3.5,3.5C146.8,162.5,145.2,160.9,145.2,159L145.2,159z"
		/>
	<path id="point-0-3" style="clip-path:url(#SVGID_00000137820285833357704230000008695454137359388351_);fill:#1D6996;" d="
		M152.2,139.3c0-1.9,1.6-3.5,3.5-3.5s3.5,1.6,3.5,3.5s-1.6,3.5-3.5,3.5S152.2,141.3,152.2,139.3z"/>
	<path id="point-0-4" style="clip-path:url(#SVGID_00000137820285833357704230000008695454137359388351_);fill:#1D6996;" d="
		M159.3,148.9c0-1.9,1.6-3.5,3.5-3.5s3.5,1.6,3.5,3.5l0,0c0,1.9-1.6,3.5-3.5,3.5S159.3,150.8,159.3,148.9L159.3,148.9z"/>
	<path id="point-0-5" style="clip-path:url(#SVGID_00000137820285833357704230000008695454137359388351_);fill:#1D6996;" d="
		M166.3,187.3c0-1.9,1.6-3.5,3.5-3.5c1.9,0,3.5,1.6,3.5,3.5s-1.6,3.5-3.5,3.5C167.9,190.8,166.3,189.2,166.3,187.3z"/>
	<path id="point-0-6" style="clip-path:url(#SVGID_00000137820285833357704230000008695454137359388351_);fill:#1D6996;" d="
		M173.4,149.6c0-1.9,1.6-3.5,3.5-3.5c1.9,0,3.5,1.6,3.5,3.5l0,0c0,1.9-1.6,3.5-3.5,3.5C174.9,153.1,173.4,151.6,173.4,149.6
		L173.4,149.6z"/>
	<path id="point-0-7" style="clip-path:url(#SVGID_00000137820285833357704230000008695454137359388351_);fill:#1D6996;" d="
		M180.4,160.2c0-1.9,1.6-3.5,3.5-3.5c1.9,0,3.5,1.6,3.5,3.5s-1.6,3.5-3.5,3.5C182,163.7,180.4,162.1,180.4,160.2z"/>
	<path id="point-0-8" style="clip-path:url(#SVGID_00000137820285833357704230000008695454137359388351_);fill:#1D6996;" d="
		M187.4,179.6c0-1.9,1.6-3.5,3.5-3.5c1.9,0,3.5,1.6,3.5,3.5s-1.6,3.5-3.5,3.5C189,183.1,187.4,181.5,187.4,179.6z"/>
	<path id="point-0-9" style="clip-path:url(#SVGID_00000137820285833357704230000008695454137359388351_);fill:#1D6996;" d="
		M194.5,125.8c0-1.9,1.6-3.5,3.5-3.5c1.9,0,3.5,1.6,3.5,3.5s-1.6,3.5-3.5,3.5C196.1,129.3,194.5,127.8,194.5,125.8z"/>
	<path id="point-0-10" style="clip-path:url(#SVGID_00000137820285833357704230000008695454137359388351_);fill:#1D6996;" d="
		M201.5,143.4c0-1.9,1.6-3.5,3.5-3.5c1.9,0,3.5,1.6,3.5,3.5s-1.6,3.5-3.5,3.5C203.1,146.9,201.5,145.3,201.5,143.4z"/>
	<path id="point-0-11" style="clip-path:url(#SVGID_00000137820285833357704230000008695454137359388351_);fill:#1D6996;" d="
		M208.5,163.8c0-1.9,1.6-3.5,3.5-3.5c1.9,0,3.5,1.6,3.5,3.5l0,0c0,1.9-1.6,3.5-3.5,3.5C210.1,167.3,208.5,165.7,208.5,163.8
		L208.5,163.8z"/>
	<path id="point-0-12" style="clip-path:url(#SVGID_00000137820285833357704230000008695454137359388351_);fill:#1D6996;" d="
		M215.6,174.5c0-1.9,1.6-3.5,3.5-3.5c1.9,0,3.5,1.6,3.5,3.5s-1.6,3.5-3.5,3.5C217.1,178,215.6,176.4,215.6,174.5z"/>
	<path id="point-0-13" style="clip-path:url(#SVGID_00000137820285833357704230000008695454137359388351_);fill:#1D6996;" d="
		M222.6,131.2c0-1.9,1.6-3.5,3.5-3.5c1.9,0,3.5,1.6,3.5,3.5s-1.6,3.5-3.5,3.5C224.2,134.7,222.6,133.1,222.6,131.2z"/>
	<path id="point-0-14" style="clip-path:url(#SVGID_00000137820285833357704230000008695454137359388351_);fill:#1D6996;" d="
		M229.7,225.7c0-1.9,1.6-3.5,3.5-3.5c1.9,0,3.5,1.6,3.5,3.5s-1.6,3.5-3.5,3.5C231.2,229.2,229.7,227.6,229.7,225.7z"/>
	<path id="point-0-15" style="clip-path:url(#SVGID_00000137820285833357704230000008695454137359388351_);fill:#1D6996;" d="
		M236.7,135.5c0-1.9,1.6-3.5,3.5-3.5c1.9,0,3.5,1.6,3.5,3.5s-1.6,3.5-3.5,3.5C238.3,139,236.7,137.4,236.7,135.5z"/>
	<path id="point-0-16" style="clip-path:url(#SVGID_00000137820285833357704230000008695454137359388351_);fill:#1D6996;" d="
		M243.7,161.5c0-1.9,1.6-3.5,3.5-3.5c1.9,0,3.5,1.6,3.5,3.5s-1.6,3.5-3.5,3.5C245.3,165,243.7,163.4,243.7,161.5z"/>
	<path id="point-0-17" style="clip-path:url(#SVGID_00000137820285833357704230000008695454137359388351_);fill:#1D6996;" d="
		M250.8,181.7c0-1.9,1.6-3.5,3.5-3.5c1.9,0,3.5,1.6,3.5,3.5s-1.6,3.5-3.5,3.5C252.3,185.2,250.8,183.6,250.8,181.7z"/>
	<path id="point-0-18" style="clip-path:url(#SVGID_00000137820285833357704230000008695454137359388351_);fill:#1D6996;" d="
		M257.8,157.5c0-1.9,1.6-3.5,3.5-3.5c1.9,0,3.5,1.6,3.5,3.5c0,1.9-1.6,3.5-3.5,3.5C259.4,161,257.8,159.4,257.8,157.5z"/>
	<path id="point-0-19" style="clip-path:url(#SVGID_00000137820285833357704230000008695454137359388351_);fill:#1D6996;" d="
		M264.9,123.6c0-1.9,1.6-3.5,3.5-3.5c1.9,0,3.5,1.6,3.5,3.5s-1.6,3.5-3.5,3.5C266.4,127.1,264.9,125.5,264.9,123.6z"/>
	<path id="point-0-20" style="clip-path:url(#SVGID_00000137820285833357704230000008695454137359388351_);fill:#1D6996;" d="
		M271.9,121.6c0-1.9,1.6-3.5,3.5-3.5c1.9,0,3.5,1.6,3.5,3.5s-1.6,3.5-3.5,3.5C273.5,125.1,271.9,123.6,271.9,121.6z"/>
	<path id="point-0-21" style="clip-path:url(#SVGID_00000137820285833357704230000008695454137359388351_);fill:#1D6996;" d="
		M286,142.9c0-1.9,1.6-3.5,3.5-3.5c1.9,0,3.5,1.6,3.5,3.5s-1.6,3.5-3.5,3.5C287.5,146.4,286,144.8,286,142.9z"/>
	<path id="point-0-22" style="clip-path:url(#SVGID_00000137820285833357704230000008695454137359388351_);fill:#1D6996;" d="
		M293,148.7c0-1.9,1.6-3.5,3.5-3.5c1.9,0,3.5,1.6,3.5,3.5s-1.6,3.5-3.5,3.5C294.6,152.2,293,150.7,293,148.7z"/>
	<path id="point-0-23" style="clip-path:url(#SVGID_00000137820285833357704230000008695454137359388351_);fill:#1D6996;" d="
		M300.1,173.5c0-1.9,1.6-3.5,3.5-3.5s3.5,1.6,3.5,3.5s-1.6,3.5-3.5,3.5S300.1,175.5,300.1,173.5z"/>
	<path id="point-0-24" style="clip-path:url(#SVGID_00000137820285833357704230000008695454137359388351_);fill:#1D6996;" d="
		M307.1,170.6c0-1.9,1.6-3.5,3.5-3.5s3.5,1.6,3.5,3.5s-1.6,3.5-3.5,3.5S307.1,172.5,307.1,170.6z"/>
	<path id="point-0-25" style="clip-path:url(#SVGID_00000137820285833357704230000008695454137359388351_);fill:#1D6996;" d="
		M314.1,151.6c0-1.9,1.6-3.5,3.5-3.5s3.5,1.6,3.5,3.5s-1.6,3.5-3.5,3.5S314.1,153.5,314.1,151.6z"/>
	<path id="point-0-26" style="clip-path:url(#SVGID_00000137820285833357704230000008695454137359388351_);fill:#1D6996;" d="
		M321.2,151.2c0-1.9,1.6-3.5,3.5-3.5s3.5,1.6,3.5,3.5l0,0c0,1.9-1.6,3.5-3.5,3.5S321.2,153.1,321.2,151.2L321.2,151.2z"/>
	<path id="point-0-27" style="clip-path:url(#SVGID_00000137820285833357704230000008695454137359388351_);fill:#1D6996;" d="
		M328.2,166.1c0-1.9,1.6-3.5,3.5-3.5s3.5,1.6,3.5,3.5s-1.6,3.5-3.5,3.5S328.2,168.1,328.2,166.1L328.2,166.1z"/>
	<path id="point-0-28" style="clip-path:url(#SVGID_00000137820285833357704230000008695454137359388351_);fill:#1D6996;" d="
		M335.3,159.9c0-1.9,1.6-3.5,3.5-3.5s3.5,1.6,3.5,3.5s-1.6,3.5-3.5,3.5S335.3,161.8,335.3,159.9L335.3,159.9z"/>
	<path id="point-0-29" style="clip-path:url(#SVGID_00000137820285833357704230000008695454137359388351_);fill:#1D6996;" d="
		M349.4,145.2c0-1.9,1.6-3.5,3.5-3.5s3.5,1.6,3.5,3.5c0,1.9-1.6,3.5-3.5,3.5S349.4,147.2,349.4,145.2z"/>
	<path id="point-0-30" style="clip-path:url(#SVGID_00000137820285833357704230000008695454137359388351_);fill:#1D6996;" d="
		M356.4,122.8c0-1.9,1.6-3.5,3.5-3.5s3.5,1.6,3.5,3.5s-1.6,3.5-3.5,3.5S356.4,124.7,356.4,122.8z"/>
	<path id="point-0-31" style="clip-path:url(#SVGID_00000137820285833357704230000008695454137359388351_);fill:#1D6996;" d="
		M363.4,223.2c0-1.9,1.6-3.5,3.5-3.5s3.5,1.6,3.5,3.5s-1.6,3.5-3.5,3.5S363.4,225.2,363.4,223.2z"/>
	<path id="point-0-32" style="clip-path:url(#SVGID_00000137820285833357704230000008695454137359388351_);fill:#1D6996;" d="
		M370.5,108.2c0-1.9,1.6-3.5,3.5-3.5s3.5,1.6,3.5,3.5c0,1.9-1.6,3.5-3.5,3.5S370.5,110.1,370.5,108.2z"/>
	<path id="point-0-33" style="clip-path:url(#SVGID_00000137820285833357704230000008695454137359388351_);fill:#1D6996;" d="
		M384.6,136.2c0-1.9,1.6-3.5,3.5-3.5s3.5,1.6,3.5,3.5c0,1.9-1.6,3.5-3.5,3.5S384.6,138.1,384.6,136.2z"/>
	<path id="point-0-34" style="clip-path:url(#SVGID_00000137820285833357704230000008695454137359388351_);fill:#1D6996;" d="
		M398.6,150.3c0-1.9,1.6-3.5,3.5-3.5s3.5,1.6,3.5,3.5l0,0c0,1.9-1.6,3.5-3.5,3.5S398.6,152.3,398.6,150.3L398.6,150.3z"/>
	<path id="point-0-35" style="clip-path:url(#SVGID_00000137820285833357704230000008695454137359388351_);fill:#1D6996;" d="
		M405.7,121.3c0-1.9,1.6-3.5,3.5-3.5s3.5,1.6,3.5,3.5s-1.6,3.5-3.5,3.5S405.7,123.3,405.7,121.3z"/>
	<path id="point-0-36" style="clip-path:url(#SVGID_00000137820285833357704230000008695454137359388351_);fill:#1D6996;" d="
		M412.7,135.7c0-1.9,1.6-3.5,3.5-3.5s3.5,1.6,3.5,3.5s-1.6,3.5-3.5,3.5S412.7,137.6,412.7,135.7z"/>
	<path id="point-0-37" style="clip-path:url(#SVGID_00000137820285833357704230000008695454137359388351_);fill:#1D6996;" d="
		M419.8,187.1c0-1.9,1.6-3.5,3.5-3.5s3.5,1.6,3.5,3.5s-1.6,3.5-3.5,3.5S419.8,189,419.8,187.1z"/>
	<path id="point-0-38" style="clip-path:url(#SVGID_00000137820285833357704230000008695454137359388351_);fill:#1D6996;" d="
		M426.8,153.6c0-1.9,1.6-3.5,3.5-3.5s3.5,1.6,3.5,3.5c0,1.9-1.6,3.5-3.5,3.5S426.8,155.6,426.8,153.6z"/>
	<path id="point-0-39" style="clip-path:url(#SVGID_00000137820285833357704230000008695454137359388351_);fill:#1D6996;" d="
		M440.9,183.5c0-1.9,1.6-3.5,3.5-3.5s3.5,1.6,3.5,3.5s-1.6,3.5-3.5,3.5S440.9,185.5,440.9,183.5z"/>
	<path id="point-0-40" style="clip-path:url(#SVGID_00000137820285833357704230000008695454137359388351_);fill:#1D6996;" d="
		M448,146c0-1.9,1.6-3.5,3.5-3.5s3.5,1.6,3.5,3.5s-1.6,3.5-3.5,3.5S448,147.9,448,146z"/>
	<path id="point-0-41" style="clip-path:url(#SVGID_00000137820285833357704230000008695454137359388351_);fill:#1D6996;" d="
		M455,178.4c0-1.9,1.6-3.5,3.5-3.5s3.5,1.6,3.5,3.5s-1.6,3.5-3.5,3.5S455,180.3,455,178.4z"/>
	<path id="point-0-42" style="clip-path:url(#SVGID_00000137820285833357704230000008695454137359388351_);fill:#1D6996;" d="
		M462.1,147.8c0-1.9,1.6-3.5,3.5-3.5s3.5,1.6,3.5,3.5l0,0c0,1.9-1.6,3.5-3.5,3.5S462.1,149.7,462.1,147.8L462.1,147.8z"/>
	<path id="point-0-43" style="clip-path:url(#SVGID_00000137820285833357704230000008695454137359388351_);fill:#1D6996;" d="
		M469.1,149.3c0-1.9,1.6-3.5,3.5-3.5s3.5,1.6,3.5,3.5s-1.6,3.5-3.5,3.5S469.1,151.2,469.1,149.3z"/>
	<path id="point-0-44" style="clip-path:url(#SVGID_00000137820285833357704230000008695454137359388351_);fill:#1D6996;" d="
		M476.1,140.6c0-1.9,1.6-3.5,3.5-3.5s3.5,1.6,3.5,3.5l0,0c0,1.9-1.6,3.5-3.5,3.5S476.1,142.5,476.1,140.6z"/>
	<path id="point-0-45" style="clip-path:url(#SVGID_00000137820285833357704230000008695454137359388351_);fill:#1D6996;" d="
		M490.2,89.8c0-1.9,1.6-3.5,3.5-3.5s3.5,1.6,3.5,3.5l0,0c0,1.9-1.6,3.5-3.5,3.5S490.2,91.7,490.2,89.8z"/>
	<path id="point-0-46" style="clip-path:url(#SVGID_00000137820285833357704230000008695454137359388351_);fill:#1D6996;" d="
		M497.3,165c0-1.9,1.6-3.5,3.5-3.5s3.5,1.6,3.5,3.5c0,1.9-1.6,3.5-3.5,3.5S497.3,166.9,497.3,165z"/>
	<path id="point-0-47" style="clip-path:url(#SVGID_00000137820285833357704230000008695454137359388351_);fill:#1D6996;" d="
		M504.3,154.6c0-1.9,1.6-3.5,3.5-3.5s3.5,1.6,3.5,3.5s-1.6,3.5-3.5,3.5S504.3,156.5,504.3,154.6z"/>
	<path id="point-0-48" style="clip-path:url(#SVGID_00000137820285833357704230000008695454137359388351_);fill:#1D6996;" d="
		M518.4,140.5c0-1.9,1.6-3.5,3.5-3.5s3.5,1.6,3.5,3.5s-1.6,3.5-3.5,3.5S518.4,142.4,518.4,140.5z"/>
	<path id="point-0-49" style="clip-path:url(#SVGID_00000137820285833357704230000008695454137359388351_);fill:#1D6996;" d="
		M525.4,118.7c0-1.9,1.6-3.5,3.5-3.5s3.5,1.6,3.5,3.5s-1.6,3.5-3.5,3.5S525.4,120.6,525.4,118.7z"/>
	<path id="point-0-50" style="clip-path:url(#SVGID_00000137820285833357704230000008695454137359388351_);fill:#1D6996;" d="
		M532.5,173.1c0-1.9,1.6-3.5,3.5-3.5s3.5,1.6,3.5,3.5s-1.6,3.5-3.5,3.5S532.5,175,532.5,173.1z"/>
	<path id="point-0-51" style="clip-path:url(#SVGID_00000137820285833357704230000008695454137359388351_);fill:#1D6996;" d="
		M539.5,136.2c0-1.9,1.6-3.5,3.5-3.5s3.5,1.6,3.5,3.5s-1.6,3.5-3.5,3.5S539.5,138.2,539.5,136.2z"/>
	<path id="point-0-52" style="clip-path:url(#SVGID_00000137820285833357704230000008695454137359388351_);fill:#1D6996;" d="
		M546.5,167.6c0-1.9,1.6-3.5,3.5-3.5s3.5,1.6,3.5,3.5s-1.6,3.5-3.5,3.5S546.5,169.5,546.5,167.6z"/>
	<path id="point-0-53" style="clip-path:url(#SVGID_00000137820285833357704230000008695454137359388351_);fill:#1D6996;" d="
		M553.6,146.8c0-1.9,1.6-3.5,3.5-3.5s3.5,1.6,3.5,3.5s-1.6,3.5-3.5,3.5S553.6,148.7,553.6,146.8z"/>
	<path id="point-0-54" style="clip-path:url(#SVGID_00000137820285833357704230000008695454137359388351_);fill:#1D6996;" d="
		M560.6,167c0-1.9,1.6-3.5,3.5-3.5s3.5,1.6,3.5,3.5s-1.6,3.5-3.5,3.5S560.6,168.9,560.6,167z"/>
	<path id="point-0-55" style="clip-path:url(#SVGID_00000137820285833357704230000008695454137359388351_);fill:#1D6996;" d="
		M567.7,151.9c0-1.9,1.6-3.5,3.5-3.5s3.5,1.6,3.5,3.5l0,0c0,1.9-1.6,3.5-3.5,3.5S567.7,153.8,567.7,151.9L567.7,151.9z"/>
	<path id="point-0-56" style="clip-path:url(#SVGID_00000137820285833357704230000008695454137359388351_);fill:#1D6996;" d="
		M574.7,157.7c0-1.9,1.6-3.5,3.5-3.5s3.5,1.6,3.5,3.5s-1.6,3.5-3.5,3.5S574.7,159.6,574.7,157.7z"/>
	<path id="point-0-57" style="clip-path:url(#SVGID_00000137820285833357704230000008695454137359388351_);fill:#1D6996;" d="
		M588.7,173.1c0-1.9,1.6-3.5,3.5-3.5s3.5,1.6,3.5,3.5s-1.6,3.5-3.5,3.5S588.7,175.1,588.7,173.1z"/>
	<path id="point-0-58" style="clip-path:url(#SVGID_00000137820285833357704230000008695454137359388351_);fill:#1D6996;" d="
		M595.8,168.2c0-1.9,1.6-3.5,3.5-3.5s3.5,1.6,3.5,3.5s-1.6,3.5-3.5,3.5S595.8,170.2,595.8,168.2z"/>
	<path id="point-0-59" style="clip-path:url(#SVGID_00000137820285833357704230000008695454137359388351_);fill:#1D6996;" d="
		M602.8,166.2c0-1.9,1.6-3.5,3.5-3.5s3.5,1.6,3.5,3.5l0,0c0,1.9-1.6,3.5-3.5,3.5S602.8,168.1,602.8,166.2L602.8,166.2z"/>
	<path id="point-0-60" style="clip-path:url(#SVGID_00000137820285833357704230000008695454137359388351_);fill:#1D6996;" d="
		M609.9,182.5c0-1.9,1.6-3.5,3.5-3.5s3.5,1.6,3.5,3.5s-1.6,3.5-3.5,3.5S609.9,184.4,609.9,182.5z"/>
	<path id="point-0-61" style="clip-path:url(#SVGID_00000137820285833357704230000008695454137359388351_);fill:#1D6996;" d="
		M616.9,145c0-1.9,1.6-3.5,3.5-3.5s3.5,1.6,3.5,3.5l0,0c0,1.9-1.6,3.5-3.5,3.5S616.9,147,616.9,145z"/>
	<path id="point-0-62" style="clip-path:url(#SVGID_00000137820285833357704230000008695454137359388351_);fill:#1D6996;" d="
		M624,141.2c0-1.9,1.6-3.5,3.5-3.5s3.5,1.6,3.5,3.5s-1.6,3.5-3.5,3.5S624,143.1,624,141.2z"/>
	<path id="point-0-63" style="clip-path:url(#SVGID_00000137820285833357704230000008695454137359388351_);fill:#1D6996;" d="
		M631,213c0-1.9,1.6-3.5,3.5-3.5s3.5,1.6,3.5,3.5s-1.6,3.5-3.5,3.5S631,215,631,213z"/>
	<path id="point-0-64" style="clip-path:url(#SVGID_00000137820285833357704230000008695454137359388351_);fill:#1D6996;" d="
		M638,144.5c0-1.9,1.6-3.5,3.5-3.5s3.5,1.6,3.5,3.5l0,0c0,1.9-1.6,3.5-3.5,3.5S638,146.4,638,144.5z"/>
	<path id="point-0-65" style="clip-path:url(#SVGID_00000137820285833357704230000008695454137359388351_);fill:#1D6996;" d="
		M645.1,178.9c0-1.9,1.6-3.5,3.5-3.5s3.5,1.6,3.5,3.5s-1.6,3.5-3.5,3.5S645.1,180.8,645.1,178.9z"/>
	<path id="point-0-66" style="clip-path:url(#SVGID_00000137820285833357704230000008695454137359388351_);fill:#1D6996;" d="
		M652.1,210.6c0-1.9,1.6-3.5,3.5-3.5s3.5,1.6,3.5,3.5s-1.6,3.5-3.5,3.5S652.1,212.6,652.1,210.6z"/>
	<path id="point-0-67" style="clip-path:url(#SVGID_00000137820285833357704230000008695454137359388351_);fill:#1D6996;" d="
		M659.2,141.9c0-1.9,1.6-3.5,3.5-3.5s3.5,1.6,3.5,3.5s-1.6,3.5-3.5,3.5S659.2,143.8,659.2,141.9z"/>
	<path id="point-0-68" style="clip-path:url(#SVGID_00000137820285833357704230000008695454137359388351_);fill:#1D6996;" d="
		M666.2,137.1c0-1.9,1.6-3.5,3.5-3.5s3.5,1.6,3.5,3.5c0,1.9-1.6,3.5-3.5,3.5S666.2,139.1,666.2,137.1z"/>
	<path id="point-0-69" style="clip-path:url(#SVGID_00000137820285833357704230000008695454137359388351_);fill:#1D6996;" d="
		M673.2,154.6c0-1.9,1.6-3.5,3.5-3.5s3.5,1.6,3.5,3.5l0,0c0,1.9-1.6,3.5-3.5,3.5S673.2,156.5,673.2,154.6L673.2,154.6z"/>
	<path id="point-0-70" style="clip-path:url(#SVGID_00000137820285833357704230000008695454137359388351_);fill:#1D6996;" d="
		M680.3,140.4c0-1.9,1.6-3.5,3.5-3.5s3.5,1.6,3.5,3.5s-1.6,3.5-3.5,3.5S680.3,142.4,680.3,140.4z"/>
	<path id="point-0-71" style="clip-path:url(#SVGID_00000137820285833357704230000008695454137359388351_);fill:#1D6996;" d="
		M687.3,161c0-1.9,1.6-3.5,3.5-3.5s3.5,1.6,3.5,3.5l0,0c0,1.9-1.6,3.5-3.5,3.5S687.3,162.9,687.3,161L687.3,161z"/>
	<path id="point-0-72" style="clip-path:url(#SVGID_00000137820285833357704230000008695454137359388351_);fill:#1D6996;" d="
		M694.4,153c0-1.9,1.6-3.5,3.5-3.5s3.5,1.6,3.5,3.5s-1.6,3.5-3.5,3.5S694.4,154.9,694.4,153z"/>
</g>
<g id="lines-secondary">
</g>
<g id="data-points-secondary">
</g>
<g id="axes-highlights">
	<g>
		<g transform="translate(29.52440643310547, 0)">
		</g>
	</g>
</g>
<g>
	<defs>
		<polygon id="SVGID_00000099649427355194014870000017642533681545310883_" points="41,43.5 42,43.5 41,44.5 		"/>
	</defs>
	<defs>
		<polygon id="SVGID_00000016778575609455918320000008562677394522534077_" points="39,41.5 38,41.5 39,40.5 		"/>
	</defs>
	<clipPath id="SVGID_00000010294619527580743040000013248262869037104559_">
		<use xlink:href="#SVGID_00000099649427355194014870000017642533681545310883_"  style="overflow:visible;"/>
	</clipPath>
	
		<clipPath id="SVGID_00000156555642423237660230000014652710316616226443_" style="clip-path:url(#SVGID_00000010294619527580743040000013248262869037104559_);">
		<use xlink:href="#SVGID_00000016778575609455918320000008562677394522534077_"  style="overflow:visible;"/>
	</clipPath>
</g>
<g id="stack-labels">
</g>
</svg>
